<?xml version="1.0" encoding="UTF-8"?>
<svg version="1.1" xmlns="http://www.w3.org/2000/svg" width="221" height="228">
<path d="M0 0 C2.375 1.0625 2.375 1.0625 4 3 C5.53359236 8.58665787 4.6086043 12.60644441 3 18 C4.32 18.66 5.64 19.32 7 20 C6.67 21.32 6.34 22.64 6 24 C6.99 24.66 7.98 25.32 9 26 C8.67 27.32 8.34 28.64 8 30 C11.07850075 31.02616692 13.39335932 31.23317032 16.625 31.3125 C17.60726562 31.34988281 18.58953125 31.38726562 19.6015625 31.42578125 C27.97061809 30.3772444 35.44573392 25.18313253 42.6875 21.125 C74.64749618 3.4861832 74.64749618 3.4861832 90.74609375 7.72265625 C95.89758996 9.61332425 99.43591375 11.7230965 103 16 C104.36125 17.423125 104.36125 17.423125 105.75 18.875 C108.30167712 22.41899601 108.53554007 24.72898806 109 29 C110.01578125 28.6390625 111.0315625 28.278125 112.078125 27.90625 C122.38910709 24.37199046 131.99658375 21.34377597 142.4375 26.1875 C151.29072834 31.23838027 154.56622094 37.93084346 157.4375 47.4375 C157.652854 48.1399585 157.86820801 48.84241699 158.09008789 49.56616211 C160.24221522 56.66268852 162.14763333 63.8201399 164 71 C164.7554024 73.91950005 165.51178061 76.8387402 166.26977539 79.75756836 C166.78409462 81.7396061 167.29642191 83.72216221 167.80639648 85.70532227 C169.21452799 91.14302136 170.74786916 96.49177623 172.54467773 101.81518555 C173.04994385 104.23965013 172.78349989 105.67595875 172 108 C171.01 108 170.02 108 169 108 C167.38850481 106.35328087 166.08046715 104.56586622 164.6953125 102.7265625 C161.9342125 99.91456664 159.23830031 99.07102016 155.34375 98.84765625 C143.61076118 99.73407711 133.79140936 104.39267181 123.4609375 109.765625 C119.14953344 111.92817053 115.80495152 112.34321082 111 112 C107.62781976 109.90692261 106.97683938 106.71198965 106 103 C105.26119583 99.0104575 104.61010181 95.01109488 104 91 C86.32519546 91.70023133 71.50313758 95.40045741 57 106 C55.96875 106.7425 54.9375 107.485 53.875 108.25 C45.13443239 116.61054293 39.43718854 127.02342884 38 139 C39.32 139.33 40.64 139.66 42 140 C42 141.32 42 142.64 42 144 C41.67 144.33 41.34 144.66 41 145 C40.63160568 149.87754084 41.67444249 154.02160027 43.125 158.625 C43.34510742 159.34776123 43.56521484 160.07052246 43.79199219 160.81518555 C44.26794084 162.37728619 44.74723086 163.93837185 45.22949219 165.49853516 C46.32046409 169.04039133 47.38467918 172.59011522 48.44873047 176.14013672 C48.97449288 177.89363928 49.50210076 179.64658978 50.03173828 181.39892578 C50.2739209 182.20185059 50.51610352 183.00477539 50.765625 183.83203125 C51.08708496 184.89514526 51.08708496 184.89514526 51.41503906 185.97973633 C51.70459473 186.97976685 51.70459473 186.97976685 52 188 C52.21108398 188.72533936 52.42216797 189.45067871 52.63964844 190.19799805 C52.75856445 190.79265869 52.87748047 191.38731934 53 192 C52 193 52 193 48.4375 193.0625 C47.303125 193.041875 46.16875 193.02125 45 193 C44.28289742 190.60965806 43.56621385 188.21920149 42.8515625 185.828125 C42.33332496 184.10700582 41.80891573 182.38770846 41.2734375 180.671875 C39.63661188 175.38366916 38.21870598 170.05623553 36.875 164.6875 C36.70427979 164.0054248 36.53355957 163.32334961 36.35766602 162.62060547 C35.48592414 159.09458533 34.6764806 155.56878032 34 152 C33.34 152 32.68 152 32 152 C31.95101562 153.26457031 31.90203125 154.52914062 31.8515625 155.83203125 C31.7765262 157.49220947 31.70097873 159.15236464 31.625 160.8125 C31.5940625 161.64587891 31.563125 162.47925781 31.53125 163.33789062 C31.49257813 164.14033203 31.45390625 164.94277344 31.4140625 165.76953125 C31.3826416 166.50792236 31.3512207 167.24631348 31.31884766 168.00708008 C31 170 31 170 29 173 C28.29187186 175.32108669 27.61975848 177.65377147 27 180 C24.69 179.34 22.38 178.68 20 178 C20 177.01 20 176.02 20 175 C18.02 175 16.04 175 14 175 C13.25 173.3125 13.25 173.3125 13 171 C13.5775 170.29875 14.155 169.5975 14.75 168.875 C16.97754927 166.02868705 17.47638504 164.64704567 18.3125 161.25 C19.8547132 155.54381117 22.82325636 151.16667919 27 147 C27.66 147 28.32 147 29 147 C30.46915721 140.63365209 29.46415032 136.7180282 27.23828125 130.65234375 C25.74801322 126.25675822 24.6493538 121.82165957 23.5625 117.3125 C21.88894966 110.43816841 20.06708556 103.64605013 18.02026367 96.87426758 C15.66698597 89.0224046 13.58558128 81.09751118 11.49853516 73.17138672 C10.04339714 67.68933602 8.49854689 62.28134069 6.65625 56.91650391 C5.8090784 54.44243505 5.05415014 51.9449838 4.3125 49.4375 C4.06113281 48.59058594 3.80976562 47.74367187 3.55078125 46.87109375 C3.36902344 46.25363281 3.18726562 45.63617188 3 45 C2.83564453 46.7015625 2.83564453 46.7015625 2.66796875 48.4375 C2.50836899 49.95839183 2.3481812 51.47922204 2.1875 53 C2.11724609 53.74378906 2.04699219 54.48757812 1.97460938 55.25390625 C1.39407472 60.59482509 0.17904981 65.07534743 -2 70 C-4.1875 71.5 -4.1875 71.5 -6 72 C-6.99 71.34 -7.98 70.68 -9 70 C-9 69.01 -9 68.02 -9 67 C-10.32 66.67 -11.64 66.34 -13 66 C-13.67578125 64.23828125 -13.67578125 64.23828125 -14 62 C-12.85546875 60.10546875 -12.85546875 60.10546875 -11.1875 58.1875 C-8.30391307 54.57966333 -6.78709381 51.63510799 -6 47 C-6.28390069 44.55845409 -6.85984286 42.46719046 -7.5625 40.125 C-8.42230068 35.94882525 -8.49629196 32.21315812 -6.875 28.25 C-6.58625 27.5075 -6.2975 26.765 -6 26 C-6.66 25.01 -7.32 24.02 -8 23 C-7.01 21.02 -6.02 19.04 -5 17 C-5.78375 16.731875 -6.5675 16.46375 -7.375 16.1875 C-10 15 -10 15 -12 12 C-12.33505659 8.98449073 -12.56038591 6.90116456 -12 4 C-8.49808738 -0.24474257 -5.33531365 -0.67903992 0 0 Z M-3 31 C-3 33.31 -3 35.62 -3 38 C-0.71271266 36.16116119 -0.71271266 36.16116119 -0.875 33.375 C-0.936875 32.199375 -0.936875 32.199375 -1 31 C-1.66 31 -2.32 31 -3 31 Z M13 49 C14.37695532 56.85185785 16.49198625 64.38017618 18.8125 72 C19.53241572 74.39548331 20.2511637 76.79131787 20.96875 79.1875 C21.49082031 80.92966797 21.49082031 80.92966797 22.0234375 82.70703125 C24.11974396 89.77577662 26.06383551 96.88606227 28 104 C28.3196875 105.16789062 28.639375 106.33578125 28.96875 107.5390625 C29.64853708 110.02532081 30.32598498 112.5121722 31 115 C31.33 115 31.66 115 32 115 C32.4019067 107.59212879 30.89838411 100.88729309 29.25 93.6875 C28.99734375 92.52798828 28.7446875 91.36847656 28.484375 90.17382812 C26.84245385 82.87138381 24.74989373 75.95769417 22 69 C21.64776367 68.09934814 21.29552734 67.19869629 20.93261719 66.27075195 C19.8839015 63.61293998 18.82002298 60.96179763 17.75 58.3125 C17.38648438 57.40822266 17.02296875 56.50394531 16.6484375 55.57226562 C15.76723568 53.38085584 14.8844138 51.19011497 14 49 C13.67 49 13.34 49 13 49 Z M-3 52 C-5.29045014 56.81209901 -5.29045014 56.81209901 -6 62 C-5.34 62 -4.68 62 -4 62 C-2.39644899 58.49223216 -1.77963136 55.85645121 -2 52 C-2.33 52 -2.66 52 -3 52 Z M25 157 C22.56574762 161.96993194 21.65384002 165.34605369 22 171 C23.32 170.34 24.64 169.68 26 169 C26 165.04 26 161.08 26 157 C25.67 157 25.34 157 25 157 Z " fill="#FC0506" transform="translate(31,16)"/>
<path d="M0 0 C2.375 1.0625 2.375 1.0625 4 3 C5.53359236 8.58665787 4.6086043 12.60644441 3 18 C4.32 18.66 5.64 19.32 7 20 C6.67 21.32 6.34 22.64 6 24 C6.99 24.66 7.98 25.32 9 26 C8.67 27.32 8.34 28.64 8 30 C11.07850075 31.02616692 13.39335932 31.23317032 16.625 31.3125 C17.60726562 31.34988281 18.58953125 31.38726562 19.6015625 31.42578125 C27.97050539 30.37725852 35.44591779 25.18325968 42.6875 21.125 C60.44574135 11.31999169 60.44574135 11.31999169 68 9 C68.99 9.33 69.98 9.66 71 10 C67.63824835 13.10315537 65.47353123 13.147075 61 13 C61.3609375 14.25296875 61.721875 15.5059375 62.09375 16.796875 C62.56277383 18.4478389 63.03150875 20.09888489 63.5 21.75 C63.85771484 22.9875 63.85771484 22.9875 64.22265625 24.25 C64.44824219 25.04921875 64.67382812 25.8484375 64.90625 26.671875 C65.11572266 27.4050293 65.32519531 28.13818359 65.54101562 28.89355469 C66 31 66 31 66 35 C66.66 35 67.32 35 68 35 C68.18175781 35.845625 68.36351563 36.69125 68.55078125 37.5625 C69.79269243 43.16702225 71.0525228 48.59643142 73.18359375 53.9296875 C76.28505717 61.79464259 78.48074862 69.75960001 80.26953125 78.01171875 C80.91646461 80.65826432 81.71873467 83.04733253 82.75 85.5625 C84 89 84 89 84.04296875 91.0390625 C82.30637924 94.30411094 78.89892623 94.76061252 75.5625 95.8125 C68.48688318 98.24410494 62.85927059 101.27659569 57 106 C55.948125 106.763125 54.89625 107.52625 53.8125 108.3125 C45.09498976 116.64256534 39.43185529 127.06787259 38 139 C39.32 139.33 40.64 139.66 42 140 C42 141.32 42 142.64 42 144 C41.67 144.33 41.34 144.66 41 145 C40.63160568 149.87754084 41.67444249 154.02160027 43.125 158.625 C43.34510742 159.34776123 43.56521484 160.07052246 43.79199219 160.81518555 C44.26794084 162.37728619 44.74723086 163.93837185 45.22949219 165.49853516 C46.32046409 169.04039133 47.38467918 172.59011522 48.44873047 176.14013672 C48.97449288 177.89363928 49.50210076 179.64658978 50.03173828 181.39892578 C50.2739209 182.20185059 50.51610352 183.00477539 50.765625 183.83203125 C51.08708496 184.89514526 51.08708496 184.89514526 51.41503906 185.97973633 C51.70459473 186.97976685 51.70459473 186.97976685 52 188 C52.21108398 188.72533936 52.42216797 189.45067871 52.63964844 190.19799805 C52.75856445 190.79265869 52.87748047 191.38731934 53 192 C52 193 52 193 48.4375 193.0625 C47.303125 193.041875 46.16875 193.02125 45 193 C44.28289742 190.60965806 43.56621385 188.21920149 42.8515625 185.828125 C42.33332496 184.10700582 41.80891573 182.38770846 41.2734375 180.671875 C39.63661188 175.38366916 38.21870598 170.05623553 36.875 164.6875 C36.70427979 164.0054248 36.53355957 163.32334961 36.35766602 162.62060547 C35.48592414 159.09458533 34.6764806 155.56878032 34 152 C33.34 152 32.68 152 32 152 C31.95101562 153.26457031 31.90203125 154.52914062 31.8515625 155.83203125 C31.7765262 157.49220947 31.70097873 159.15236464 31.625 160.8125 C31.5940625 161.64587891 31.563125 162.47925781 31.53125 163.33789062 C31.49257813 164.14033203 31.45390625 164.94277344 31.4140625 165.76953125 C31.3826416 166.50792236 31.3512207 167.24631348 31.31884766 168.00708008 C31 170 31 170 29 173 C28.29187186 175.32108669 27.61975848 177.65377147 27 180 C24.69 179.34 22.38 178.68 20 178 C20 177.01 20 176.02 20 175 C18.02 175 16.04 175 14 175 C13.25 173.3125 13.25 173.3125 13 171 C13.5775 170.29875 14.155 169.5975 14.75 168.875 C16.97754927 166.02868705 17.47638504 164.64704567 18.3125 161.25 C19.8547132 155.54381117 22.82325636 151.16667919 27 147 C27.66 147 28.32 147 29 147 C30.46915721 140.63365209 29.46415032 136.7180282 27.23828125 130.65234375 C25.74801322 126.25675822 24.6493538 121.82165957 23.5625 117.3125 C21.88894966 110.43816841 20.06708556 103.64605013 18.02026367 96.87426758 C15.66698597 89.0224046 13.58558128 81.09751118 11.49853516 73.17138672 C10.04339714 67.68933602 8.49854689 62.28134069 6.65625 56.91650391 C5.8090784 54.44243505 5.05415014 51.9449838 4.3125 49.4375 C4.06113281 48.59058594 3.80976562 47.74367187 3.55078125 46.87109375 C3.36902344 46.25363281 3.18726562 45.63617188 3 45 C2.83564453 46.7015625 2.83564453 46.7015625 2.66796875 48.4375 C2.50836899 49.95839183 2.3481812 51.47922204 2.1875 53 C2.11724609 53.74378906 2.04699219 54.48757812 1.97460938 55.25390625 C1.39407472 60.59482509 0.17904981 65.07534743 -2 70 C-4.1875 71.5 -4.1875 71.5 -6 72 C-6.99 71.34 -7.98 70.68 -9 70 C-9 69.01 -9 68.02 -9 67 C-10.32 66.67 -11.64 66.34 -13 66 C-13.67578125 64.23828125 -13.67578125 64.23828125 -14 62 C-12.85546875 60.10546875 -12.85546875 60.10546875 -11.1875 58.1875 C-8.30391307 54.57966333 -6.78709381 51.63510799 -6 47 C-6.28390069 44.55845409 -6.85984286 42.46719046 -7.5625 40.125 C-8.42230068 35.94882525 -8.49629196 32.21315812 -6.875 28.25 C-6.58625 27.5075 -6.2975 26.765 -6 26 C-6.66 25.01 -7.32 24.02 -8 23 C-7.01 21.02 -6.02 19.04 -5 17 C-5.78375 16.731875 -6.5675 16.46375 -7.375 16.1875 C-10 15 -10 15 -12 12 C-12.33505659 8.98449073 -12.56038591 6.90116456 -12 4 C-8.49808738 -0.24474257 -5.33531365 -0.67903992 0 0 Z M-3 31 C-3 33.31 -3 35.62 -3 38 C-0.71271266 36.16116119 -0.71271266 36.16116119 -0.875 33.375 C-0.936875 32.199375 -0.936875 32.199375 -1 31 C-1.66 31 -2.32 31 -3 31 Z M13 49 C14.37695532 56.85185785 16.49198625 64.38017618 18.8125 72 C19.53241572 74.39548331 20.2511637 76.79131787 20.96875 79.1875 C21.49082031 80.92966797 21.49082031 80.92966797 22.0234375 82.70703125 C24.11974396 89.77577662 26.06383551 96.88606227 28 104 C28.3196875 105.16789062 28.639375 106.33578125 28.96875 107.5390625 C29.64853708 110.02532081 30.32598498 112.5121722 31 115 C31.33 115 31.66 115 32 115 C32.4019067 107.59212879 30.89838411 100.88729309 29.25 93.6875 C28.99734375 92.52798828 28.7446875 91.36847656 28.484375 90.17382812 C26.84245385 82.87138381 24.74989373 75.95769417 22 69 C21.64776367 68.09934814 21.29552734 67.19869629 20.93261719 66.27075195 C19.8839015 63.61293998 18.82002298 60.96179763 17.75 58.3125 C17.38648438 57.40822266 17.02296875 56.50394531 16.6484375 55.57226562 C15.76723568 53.38085584 14.8844138 51.19011497 14 49 C13.67 49 13.34 49 13 49 Z M-3 52 C-5.29045014 56.81209901 -5.29045014 56.81209901 -6 62 C-5.34 62 -4.68 62 -4 62 C-2.39644899 58.49223216 -1.77963136 55.85645121 -2 52 C-2.33 52 -2.66 52 -3 52 Z M25 157 C22.56574762 161.96993194 21.65384002 165.34605369 22 171 C23.32 170.34 24.64 169.68 26 169 C26 165.04 26 161.08 26 157 C25.67 157 25.34 157 25 157 Z " fill="#0C0AF5" transform="translate(31,16)"/>
<path d="M0 0 C0.66 0.33 1.32 0.66 2 1 C1.67 2.98 1.34 4.96 1 7 C2.65 6.67 4.3 6.34 6 6 C6.33 8.31 6.66 10.62 7 13 C7.99 13 8.98 13 10 13 C10 9.04 10 5.08 10 1 C10.66 1.33 11.32 1.66 12 2 C11.95617187 2.83273438 11.91234375 3.66546875 11.8671875 4.5234375 C12.01798572 8.4708026 12.94819916 11.89037756 14.125 15.625 C14.34510742 16.34776123 14.56521484 17.07052246 14.79199219 17.81518555 C15.26794084 19.37728619 15.74723086 20.93837185 16.22949219 22.49853516 C17.32046409 26.04039133 18.38467918 29.59011522 19.44873047 33.14013672 C19.97449288 34.89363928 20.50210076 36.64658978 21.03173828 38.39892578 C21.2739209 39.20185059 21.51610352 40.00477539 21.765625 40.83203125 C21.97993164 41.54077393 22.19423828 42.2495166 22.41503906 42.97973633 C22.70459473 43.97976685 22.70459473 43.97976685 23 45 C23.21108398 45.72533936 23.42216797 46.45067871 23.63964844 47.19799805 C23.75856445 47.79265869 23.87748047 48.38731934 24 49 C23 50 23 50 19.4375 50.0625 C18.303125 50.041875 17.16875 50.02125 16 50 C15.28289742 47.60965806 14.56621385 45.21920149 13.8515625 42.828125 C13.33332496 41.10700582 12.80891573 39.38770846 12.2734375 37.671875 C10.63661188 32.38366916 9.21870598 27.05623553 7.875 21.6875 C7.70427979 21.0054248 7.53355957 20.32334961 7.35766602 19.62060547 C6.48592414 16.09458533 5.6764806 12.56878032 5 9 C4.34 9 3.68 9 3 9 C2.95101562 10.26457031 2.90203125 11.52914062 2.8515625 12.83203125 C2.7765262 14.49220947 2.70097873 16.15236464 2.625 17.8125 C2.57859375 19.06256836 2.57859375 19.06256836 2.53125 20.33789062 C2.49257813 21.14033203 2.45390625 21.94277344 2.4140625 22.76953125 C2.3826416 23.50792236 2.3512207 24.24631348 2.31884766 25.00708008 C2 27 2 27 0 30 C-0.70812814 32.32108669 -1.38024152 34.65377147 -2 37 C-4.31 36.34 -6.62 35.68 -9 35 C-9 34.01 -9 33.02 -9 32 C-10.98 32 -12.96 32 -15 32 C-15.75 30.3125 -15.75 30.3125 -16 28 C-15.4225 27.29875 -14.845 26.5975 -14.25 25.875 C-12.02245073 23.02868705 -11.52361496 21.64704567 -10.6875 18.25 C-9.1452868 12.54381117 -6.17674364 8.16667919 -2 4 C-1.34 4 -0.68 4 0 4 C0 2.68 0 1.36 0 0 Z M-4 14 C-6.43425238 18.96993194 -7.34615998 22.34605369 -7 28 C-5.68 27.34 -4.36 26.68 -3 26 C-3 22.04 -3 18.08 -3 14 C-3.33 14 -3.66 14 -4 14 Z " fill="#6E71DE" transform="translate(60,159)"/>
<path d="M0 0 C2.475 0.495 2.475 0.495 5 1 C7.23167185 0.63143136 7.23167185 0.63143136 9 0 C10.03307771 1.76371818 11.05112049 3.53625033 12.0625 5.3125 C12.63097656 6.29863281 13.19945312 7.28476562 13.78515625 8.30078125 C15 11 15 11 14 14 C14 17.242688 15.14988609 20.26482021 16.046875 23.359375 C16.25934875 24.10020325 16.47182251 24.84103149 16.69073486 25.60430908 C17.3746841 27.98692474 18.06227086 30.36847295 18.75 32.75 C19.19816055 34.30852364 19.64607981 35.86711669 20.09375 37.42578125 C20.42348816 38.57282532 20.42348816 38.57282532 20.7598877 39.74304199 C21.2007061 41.27716806 21.64105553 42.81142896 22.08093262 44.3458252 C23.11039111 47.93185907 24.14987775 51.51397283 25.22070312 55.08789062 C25.58615234 56.32216797 25.95160156 57.55644531 26.328125 58.828125 C26.65200195 59.90481445 26.97587891 60.98150391 27.30957031 62.09082031 C27.96506651 64.85280501 28.13956978 67.17599454 28 70 C26.68 70 25.36 70 24 70 C23.505 69.01 23.505 69.01 23 68 C22.34 68.99 21.68 69.98 21 71 C17.22237659 58.74002071 13.70732884 46.43275573 10.44897461 34.02392578 C9.012772 28.59211773 7.48328565 23.23746338 5.65844727 17.9230957 C4.31130918 13.98857339 3.17931708 9.9872149 2 6 C1.67 9.96 1.34 13.92 1 18 C0.67 18 0.34 18 0 18 C0 12.06 0 6.12 0 0 Z " fill="#3334E9" transform="translate(32,55)"/>
<path d="M0 0 C2.375 1.0625 2.375 1.0625 4 3 C5.53359236 8.58665787 4.6086043 12.60644441 3 18 C4.32 18.66 5.64 19.32 7 20 C6.79375 20.61875 6.5875 21.2375 6.375 21.875 C6.25125 22.57625 6.1275 23.2775 6 24 C6.66 24.66 7.32 25.32 8 26 C6.68 26 5.36 26 4 26 C4 24.02 4 22.04 4 20 C3.34 20 2.68 20 2 20 C2 19.34 2 18.68 2 18 C-0.06402968 18.48705712 -0.06402968 18.48705712 -2 20 C-2.81870185 23.56206661 -2.81870185 23.56206661 -3 27 C-6.875 25.25 -6.875 25.25 -8 23 C-7.06553465 20.96855359 -6.06775224 18.96466413 -5 17 C-5.78375 16.731875 -6.5675 16.46375 -7.375 16.1875 C-10 15 -10 15 -12 12 C-12.33505659 8.98449073 -12.56038591 6.90116456 -12 4 C-8.49808738 -0.24474257 -5.33531365 -0.67903992 0 0 Z " fill="#2A2AEE" transform="translate(31,16)"/>
<path d="M0 0 C1 3 1 3 1 5 C1.45375 4.34 1.9075 3.68 2.375 3 C2.91125 2.34 3.4475 1.68 4 1 C4.66 1 5.32 1 6 1 C7.125 6.75 7.125 6.75 6 9 C5.91599471 10.59447464 5.89272533 12.19240545 5.90234375 13.7890625 C5.90556641 14.73007812 5.90878906 15.67109375 5.91210938 16.640625 C5.92048828 17.62546875 5.92886719 18.6103125 5.9375 19.625 C5.94201172 20.61757813 5.94652344 21.61015625 5.95117188 22.6328125 C5.96297855 25.0886016 5.979446 27.54427104 6 30 C6.33 30 6.66 30 7 30 C6.37815737 39.84226785 6.37815737 39.84226785 3 44 C1.515 44.495 1.515 44.495 0 45 C-0.99 44.34 -1.98 43.68 -3 43 C-3 42.01 -3 41.02 -3 40 C-4.32 39.67 -5.64 39.34 -7 39 C-7.67578125 37.23828125 -7.67578125 37.23828125 -8 35 C-6.85546875 33.10546875 -6.85546875 33.10546875 -5.1875 31.1875 C-2.30391307 27.57966333 -0.78709381 24.63510799 0 20 C-0.28390069 17.55845409 -0.85984286 15.46719046 -1.5625 13.125 C-2.53298765 8.41120284 -2.64304696 4.12976088 0 0 Z M3 4 C3 6.31 3 8.62 3 11 C5.28728734 9.16116119 5.28728734 9.16116119 5.125 6.375 C5.063125 5.199375 5.063125 5.199375 5 4 C4.34 4 3.68 4 3 4 Z M3 25 C0.70954986 29.81209901 0.70954986 29.81209901 0 35 C0.66 35 1.32 35 2 35 C3.60355101 31.49223216 4.22036864 28.85645121 4 25 C3.67 25 3.34 25 3 25 Z " fill="#9CA0E0" transform="translate(25,43)"/>
<path d="M0 0 C0.66 0.33 1.32 0.66 2 1 C1.95617187 1.83273438 1.91234375 2.66546875 1.8671875 3.5234375 C2.01798572 7.4708026 2.94819916 10.89037756 4.125 14.625 C4.34510742 15.34776123 4.56521484 16.07052246 4.79199219 16.81518555 C5.26794084 18.37728619 5.74723086 19.93837185 6.22949219 21.49853516 C7.32046409 25.04039133 8.38467918 28.59011522 9.44873047 32.14013672 C9.97449288 33.89363928 10.50210076 35.64658978 11.03173828 37.39892578 C11.2739209 38.20185059 11.51610352 39.00477539 11.765625 39.83203125 C12.08708496 40.89514526 12.08708496 40.89514526 12.41503906 41.97973633 C12.60807617 42.64642334 12.80111328 43.31311035 13 44 C13.21108398 44.72533936 13.42216797 45.45067871 13.63964844 46.19799805 C13.81802246 47.08998901 13.81802246 47.08998901 14 48 C13 49 13 49 9.4375 49.0625 C8.303125 49.041875 7.16875 49.02125 6 49 C5.28633886 46.62112953 4.57272743 44.24224432 3.859375 41.86328125 C3.3082563 40.02705395 2.75625225 38.19109201 2.203125 36.35546875 C1.69623155 34.67185836 1.19356404 32.98696935 0.6953125 31.30078125 C0.10722454 29.3548048 -0.5343375 27.42511052 -1.1875 25.5 C-2.24318734 20.95242375 -2.16823642 16.64519458 -2 12 C-1.34 12 -0.68 12 0 12 C0 8.04 0 4.08 0 0 Z " fill="#5354EA" transform="translate(70,160)"/>
<path d="M0 0 C2.35653803 1.54362375 3.63916192 3.15347815 5.265625 5.4453125 C5.78640625 6.16976562 6.3071875 6.89421875 6.84375 7.640625 C7.42382812 8.47207031 7.42382812 8.47207031 8.015625 9.3203125 C6.695625 9.6503125 5.375625 9.9803125 4.015625 10.3203125 C4.44875 11.47660156 4.44875 11.47660156 4.890625 12.65625 C5.261875 13.65914062 5.633125 14.66203125 6.015625 15.6953125 C6.5725 17.19191406 6.5725 17.19191406 7.140625 18.71875 C8.015625 21.3203125 8.015625 21.3203125 8.015625 23.3203125 C6.695625 23.3203125 5.375625 23.3203125 4.015625 23.3203125 C1.515625 18.3203125 1.515625 18.3203125 -0.984375 13.3203125 C-2.304375 13.3203125 -3.624375 13.3203125 -4.984375 13.3203125 C-4.984375 9.0303125 -4.984375 4.7403125 -4.984375 0.3203125 C-1.984375 -0.6796875 -1.984375 -0.6796875 0 0 Z " fill="#F1F3FA" transform="translate(64.984375,70.6796875)"/>
<path d="M0 0 C2.475 0.495 2.475 0.495 5 1 C7.23167185 0.63143136 7.23167185 0.63143136 9 0 C10.03307771 1.76371818 11.05112049 3.53625033 12.0625 5.3125 C12.63097656 6.29863281 13.19945312 7.28476562 13.78515625 8.30078125 C15 11 15 11 14 14 C13.67 13.67 13.34 13.34 13 13 C12.67 13.99 12.34 14.98 12 16 C10 14 10 14 9.875 11.375 C9.91625 10.59125 9.9575 9.8075 10 9 C9.34 9 8.68 9 8 9 C7.71444287 14.99669982 8.23756156 19.3091436 10.33203125 24.9140625 C11.21001581 27.65583886 11.21949569 30.14655606 11 33 C10.67 33 10.34 33 10 33 C7.28445251 24.01440789 4.6435729 15.00695588 2 6 C1.67 9.96 1.34 13.92 1 18 C0.67 18 0.34 18 0 18 C0 12.06 0 6.12 0 0 Z " fill="#6A6DE8" transform="translate(32,55)"/>
<path d="M0 0 C0.33 0 0.66 0 1 0 C1.33 2.31 1.66 4.62 2 7 C2.99 7.33 3.98 7.66 5 8 C5 8.99 5 9.98 5 11 C4.34 11 3.68 11 3 11 C3.33 15.29 3.66 19.58 4 24 C2.68 23.67 1.36 23.34 0 23 C-0.33 20.69 -0.66 18.38 -1 16 C-2.65 16.33 -4.3 16.66 -6 17 C-6 14.69 -6 12.38 -6 10 C-5.01 10 -4.02 10 -3 10 C-2.67 9.01 -2.34 8.02 -2 7 C-1.34 7 -0.68 7 0 7 C0 4.69 0 2.38 0 0 Z " fill="#0303EE" transform="translate(67,149)"/>
<path d="M0 0 C0.66 1.32 1.32 2.64 2 4 C3.98 4 5.96 4 8 4 C7 7 7 7 5 8 C5 9.98 5 11.96 5 14 C3.63875 13.690625 3.63875 13.690625 2.25 13.375 C-1.11027897 12.9872755 -2.24075815 13.19588033 -5 15 C-4.95875 13.9275 -4.9175 12.855 -4.875 11.75 C-4.9885825 8.34252515 -5.21273364 6.79260369 -7 4 C-5.02 4 -3.04 4 -1 4 C-0.67 2.68 -0.34 1.36 0 0 Z " fill="#E2051E" transform="translate(59,53)"/>
<path d="M0 0 C0.66 0.33 1.32 0.66 2 1 C1.67 2.98 1.34 4.96 1 7 C2.65 6.67 4.3 6.34 6 6 C7.29243536 10.1196377 8.26252625 13.66831683 8 18 C6.35173889 15.03312999 5.55728913 12.34373475 5 9 C3.68 9 2.36 9 1 9 C-1.42479736 12.63719605 -1.38662577 14.85703482 -1.625 19.1875 C-1.73714844 21.09595703 -1.73714844 21.09595703 -1.8515625 23.04296875 C-1.90054688 24.01878906 -1.94953125 24.99460938 -2 26 C-2.33 26 -2.66 26 -3 26 C-3.33 22.37 -3.66 18.74 -4 15 C-4.99 16.485 -4.99 16.485 -6 18 C-6 16.68 -6 15.36 -6 14 C-6.99 14.33 -7.98 14.66 -9 15 C-7.51131293 10.39860359 -5.25370145 7.49772906 -2 4 C-1.34 4 -0.68 4 0 4 C0 2.68 0 1.36 0 0 Z " fill="#9295E6" transform="translate(60,159)"/>
<path d="M0 0 C-0.144375 0.804375 -0.28875 1.60875 -0.4375 2.4375 C-1.09688339 6.61359481 -1.56091353 10.79598059 -2 15 C-2.66 15 -3.32 15 -4 15 C-4 15.99 -4 16.98 -4 18 C-5.65 18 -7.3 18 -9 18 C-9.75 16.3125 -9.75 16.3125 -10 14 C-9.401875 13.2575 -8.80375 12.515 -8.1875 11.75 C-6.06764471 9.08503907 -5.57549906 7.93926402 -4.875 4.75 C-4.441875 2.89375 -4.441875 2.89375 -4 1 C-2 0 -2 0 0 0 Z " fill="#6768E6" transform="translate(54,173)"/>
<path d="M0 0 C0.33 0 0.66 0 1 0 C1 3.96 1 7.92 1 12 C1.721875 11.319375 2.44375 10.63875 3.1875 9.9375 C6 8 6 8 8.8125 8.25 C9.534375 8.4975 10.25625 8.745 11 9 C10.01 9.495 10.01 9.495 9 10 C9.433125 11.15628906 9.433125 11.15628906 9.875 12.3359375 C10.24625 13.33882812 10.6175 14.34171875 11 15.375 C11.556875 16.87160156 11.556875 16.87160156 12.125 18.3984375 C13 21 13 21 13 23 C11.68 23 10.36 23 9 23 C7.33333333 19.66666667 5.66666667 16.33333333 4 13 C2.68 13 1.36 13 0 13 C0 8.71 0 4.42 0 0 Z " fill="#494CD0" transform="translate(60,71)"/>
<path d="M0 0 C0.66 0.33 1.32 0.66 2 1 C1.95875 1.86625 1.9175 2.7325 1.875 3.625 C1.81694312 6.94184041 1.81694312 6.94184041 3 9.625 C4.5059881 14.70770984 4.15333375 19.73554125 4 25 C2.68 24.67 1.36 24.34 0 24 C-1.29243536 19.8803623 -2.26252625 16.33168317 -2 12 C-1.34 12 -0.68 12 0 12 C0 8.04 0 4.08 0 0 Z " fill="#0707EA" transform="translate(70,160)"/>
<path d="M0 0 C0 0.66 0 1.32 0 2 C0.66 2 1.32 2 2 2 C1.125 7.75 1.125 7.75 0 10 C-1.2065625 10.2784375 -1.2065625 10.2784375 -2.4375 10.5625 C-5.16202718 11.72443562 -5.16202718 11.72443562 -5.7734375 14.12890625 C-6.26706278 16.4146059 -6.68069616 18.6838557 -7 21 C-7.33 21 -7.66 21 -8 21 C-8.02712066 19.56260487 -8.04645067 18.12506137 -8.0625 16.6875 C-8.07410156 15.88699219 -8.08570312 15.08648437 -8.09765625 14.26171875 C-8 12 -8 12 -7 9 C-6.34 9 -5.68 9 -5 9 C-5.226875 8.2575 -5.45375 7.515 -5.6875 6.75 C-6 4 -6 4 -4.75 1.6875 C-3 0 -3 0 0 0 Z " fill="#0000F7" transform="translate(33,34)"/>
<path d="M0 0 C-0.15625 1.8359375 -0.15625 1.8359375 -1 4 C-10.77073855 9.74189505 -21.86575353 12.26335502 -33 10 C-33.99 9.34 -34.98 8.68 -36 8 C-35.67 7.34 -35.34 6.68 -35 6 C-34.45730469 6.32226562 -33.91460937 6.64453125 -33.35546875 6.9765625 C-28.22510156 9.20567727 -21.78656712 8.84336041 -16.49609375 7.2421875 C-14.26429314 6.25631384 -12.13822746 5.17423994 -10 4 C-2.17567568 0 -2.17567568 0 0 0 Z " fill="#9093E5" transform="translate(73,39)"/>
<path d="M0 0 C0.99 0.495 0.99 0.495 2 1 C2.4140625 3.06640625 2.4140625 3.06640625 2.625 5.5625 C2.69976562 6.38878906 2.77453125 7.21507812 2.8515625 8.06640625 C2.92503906 9.02353516 2.92503906 9.02353516 3 10 C3.66 10 4.32 10 5 10 C5.99 11.485 5.99 11.485 7 13 C7 9.7 7 6.4 7 3 C9.46301423 5.46301423 9.76766521 7.27360036 10.625 10.625 C10.88539062 11.62789062 11.14578125 12.63078125 11.4140625 13.6640625 C11.60742188 14.43492187 11.80078125 15.20578125 12 16 C11 17 11 17 7.4375 17.0625 C6.303125 17.041875 5.16875 17.02125 4 17 C2.19003784 11.34244531 0.64270983 5.9129304 0 0 Z " fill="#7A7DE2" transform="translate(72,192)"/>
<path d="M0 0 C0 0.99 0 1.98 0 3 C-1.65 3.33 -3.3 3.66 -5 4 C-5 4.66 -5 5.32 -5 6 C-3.35 5.67 -1.7 5.34 0 5 C0 5.66 0 6.32 0 7 C-0.99 7.495 -0.99 7.495 -2 8 C-2 9.65 -2 11.3 -2 13 C-3.32 13.33 -4.64 13.66 -6 14 C-6.99 10.37 -7.98 6.74 -9 3 C-3.375 0 -3.375 0 0 0 Z " fill="#E5E9F6" transform="translate(82,107)"/>
<path d="M0 0 C0.33 0.99 0.66 1.98 1 3 C1.33 3.66 1.66 4.32 2 5 C2.30791869 7.33077343 2.50895274 9.66241896 2.71875 12.00390625 C2.79532012 13.99583131 2.79532012 13.99583131 4 15 C4.13568319 18.66344611 4.16461426 21.50615721 3 25 C2.34 25 1.68 25 1 25 C0.92652344 24.11248047 0.92652344 24.11248047 0.8515625 23.20703125 C0.39095563 18.17947352 0.39095563 18.17947352 -1.0625 13.375 C-2.64420191 9.36802183 -2.63291241 5.54272401 -1 1.5625 C-0.67 1.046875 -0.34 0.53125 0 0 Z " fill="#686AD8" transform="translate(25,43)"/>
<path d="M0 0 C-0.0721875 0.60328125 -0.144375 1.2065625 -0.21875 1.828125 C-0.3115625 2.62734375 -0.404375 3.4265625 -0.5 4.25 C-0.5928125 5.03890625 -0.685625 5.8278125 -0.78125 6.640625 C-1.06154619 9.26890397 -1.06154619 9.26890397 -1 13 C-1.99 13 -2.98 13 -4 13 C-4.45375 12.236875 -4.9075 11.47375 -5.375 10.6875 C-7.22215214 7.63259454 -8.95052981 6.73078038 -12 5 C-12 4.34 -12 3.68 -12 3 C-8.28400809 2.79913557 -7.22791555 2.8480563 -4 5 C-4 3.68 -4 2.36 -4 1 C-2 0 -2 0 0 0 Z " fill="#E8EBF7" transform="translate(78,94)"/>
<path d="M0 0 C-2.98899628 1.49449814 -5.23925025 0.56708691 -8.5 0 C-14.62172728 -0.93456697 -19.9152788 -1.02526438 -26 0 C-27.19625 0.185625 -28.3925 0.37125 -29.625 0.5625 C-30.800625 0.7790625 -30.800625 0.7790625 -32 1 C-23.89854554 -7.10145446 -8.89795238 -5.475663 0 0 Z " fill="#EC9398" transform="translate(176,44)"/>
<path d="M0 0 C0.66 0 1.32 0 2 0 C3.125 5.75 3.125 5.75 2 8 C1.88234819 9.78918175 1.82111807 11.58224075 1.7890625 13.375 C1.76070312 14.44234375 1.73234375 15.5096875 1.703125 16.609375 C1.6510455 18.86962524 1.60677308 21.13006886 1.5703125 23.390625 C1.539375 24.45796875 1.5084375 25.5253125 1.4765625 26.625 C1.45674316 27.60726562 1.43692383 28.58953125 1.41650391 29.6015625 C1.27905762 30.39304687 1.14161133 31.18453125 1 32 C0.01 32.66 -0.98 33.32 -2 34 C-1.9278125 33.39414063 -1.855625 32.78828125 -1.78125 32.1640625 C-1.11288795 26.1302384 -0.58293244 20.07201299 -1 14 C-1.33 13.67 -1.66 13.34 -2 13 C-2.12487758 11.19072719 -2.17570846 9.37603893 -2.1875 7.5625 C-2.20167969 6.57378906 -2.21585938 5.58507813 -2.23046875 4.56640625 C-2 2 -2 2 0 0 Z M-1 3 C-1 5.31 -1 7.62 -1 10 C1.28728734 8.16116119 1.28728734 8.16116119 1.125 5.375 C1.063125 4.199375 1.063125 4.199375 1 3 C0.34 3 -0.32 3 -1 3 Z " fill="#DBDEF4" transform="translate(29,44)"/>
<path d="M0 0 C5.28 0 10.56 0 16 0 C16 0.33 16 0.66 16 1 C13.69 1 11.38 1 9 1 C9.30798326 2.48011371 9.621518 3.95907325 9.9375 5.4375 C10.11152344 6.26121094 10.28554687 7.08492188 10.46484375 7.93359375 C10.80752994 9.97661204 10.80752994 9.97661204 12 11 C12.04063832 12.66617115 12.042721 14.33388095 12 16 C12.66 16 13.32 16 14 16 C14 17.98 14 19.96 14 22 C13.34 22 12.68 22 12 22 C9.2241982 15.43901392 7.9973446 9.04007955 7 2 C4.69 1.67 2.38 1.34 0 1 C0 0.67 0 0.34 0 0 Z " fill="#EDAAB1" transform="translate(128,105)"/>
<path d="M0 0 C0.66 0 1.32 0 2 0 C2.309375 0.969375 2.61875 1.93875 2.9375 2.9375 C3.69523342 5.84065792 3.69523342 5.84065792 5 7 C5.14115161 9.67058851 5.04247107 12.32432238 5 15 C2.5625 14.25 2.5625 14.25 0 13 C-1.62110169 9.6330965 -1.13572598 5.66460154 -1 2 C-0.67 1.34 -0.34 0.68 0 0 Z " fill="#0101EF" transform="translate(40,64)"/>
<path d="M0 0 C1.84187025 2.76280538 2.72248277 4.80707826 3.6875 7.9375 C3.95949219 8.79214844 4.23148438 9.64679688 4.51171875 10.52734375 C5.02075548 13.10510574 4.84888744 14.54449337 4 17 C1 17 1 17 -0.53515625 15.5390625 C-1.03917969 14.90742187 -1.54320312 14.27578125 -2.0625 13.625 C-3.66063282 11.64868307 -5.19993981 9.80006019 -7 8 C-5.68 8 -4.36 8 -3 8 C-1.68 9.32 -0.36 10.64 1 12 C0.67 8.04 0.34 4.08 0 0 Z " fill="#E77679" transform="translate(199,107)"/>
<path d="M0 0 C-0.33 2.31 -0.66 4.62 -1 7 C-1.66 7 -2.32 7 -3 7 C-3.33 4.69 -3.66 2.38 -4 0 C-6.64 0.33 -9.28 0.66 -12 1 C-12.33 2.98 -12.66 4.96 -13 7 C-13.33 7 -13.66 7 -14 7 C-14.33 4.03 -14.66 1.06 -15 -2 C-8.97365319 -3.06347297 -5.17023869 -3.44682579 0 0 Z " fill="#E01E24" transform="translate(152,108)"/>
<path d="M0 0 C0.12375 0.639375 0.2475 1.27875 0.375 1.9375 C0.58125 2.618125 0.7875 3.29875 1 4 C1.66 4.33 2.32 4.66 3 5 C2.34 5 1.68 5 1 5 C1.02320313 6.26457031 1.04640625 7.52914062 1.0703125 8.83203125 C1.08907126 10.4921816 1.10727135 12.15233833 1.125 13.8125 C1.15013672 15.06256836 1.15013672 15.06256836 1.17578125 16.33789062 C1.18222656 17.14033203 1.18867187 17.94277344 1.1953125 18.76953125 C1.20578613 19.50792236 1.21625977 20.24631348 1.22705078 21.00708008 C1 23 1 23 -1 26 C-1.02892857 22.04168191 -1.04677427 18.08339083 -1.0625 14.125 C-1.07087891 12.99707031 -1.07925781 11.86914062 -1.08789062 10.70703125 C-1.09111328 9.63066406 -1.09433594 8.55429687 -1.09765625 7.4453125 C-1.10289307 6.45031738 -1.10812988 5.45532227 -1.11352539 4.43017578 C-1 2 -1 2 0 0 Z " fill="#0F10BB" transform="translate(31,50)"/>
<path d="M0 0 C0.66 0 1.32 0 2 0 C2.33 3.63 2.66 7.26 3 11 C2.01 11 1.02 11 0 11 C0 10.01 0 9.02 0 8 C-0.66 8 -1.32 8 -2 8 C-2.125 5.125 -2.125 5.125 -2 2 C-1.34 1.34 -0.68 0.68 0 0 Z " fill="#0303EF" transform="translate(77,194)"/>
<path d="M0 0 C0.99 0 1.98 0 3 0 C3.67119549 1.4562545 4.33681807 2.91507867 5 4.375 C5.556875 5.59316406 5.556875 5.59316406 6.125 6.8359375 C7 9 7 9 7 11 C5.68 11 4.36 11 3 11 C2.49384702 9.73160474 1.99530901 8.46016898 1.5 7.1875 C1.2215625 6.47980469 0.943125 5.77210937 0.65625 5.04296875 C0 3 0 3 0 0 Z " fill="#E9EBF7" transform="translate(66,83)"/>
<path d="M0 0 C-1 6 -2 12 -3 18 C-3.33 18 -3.66 18 -4 18 C-4.24942657 15.75215576 -4.47383488 13.50152494 -4.6875 11.25 C-4.87892578 9.37054688 -4.87892578 9.37054688 -5.07421875 7.453125 C-5 4 -5 4 -3.64453125 1.546875 C-2 0 -2 0 0 0 Z " fill="#0000E2" transform="translate(63,167)"/>
<path d="M0 0 C2 3 2 3 2 5 C3.32 5 4.64 5 6 5 C5.67 4.01 5.34 3.02 5 2 C5.66 2 6.32 2 7 2 C7 2.99 7 3.98 7 5 C7.66 5.33 8.32 5.66 9 6 C8.34 6 7.68 6 7 6 C7 7.32 7 8.64 7 10 C4.69 9.34 2.38 8.68 0 8 C0 5.36 0 2.72 0 0 Z " fill="#1A1BD2" transform="translate(67,89)"/>
<path d="M0 0 C0.66 0 1.32 0 2 0 C2 2.31 2 4.62 2 7 C0.125 8.0625 0.125 8.0625 -2 9 C-2.66 8.67 -3.32 8.34 -4 8 C-4 7.01 -4 6.02 -4 5 C-3.34 5 -2.68 5 -2 5 C-1.7834375 4.0409375 -1.7834375 4.0409375 -1.5625 3.0625 C-1 1 -1 1 0 0 Z " fill="#3031D5" transform="translate(27,79)"/>
<path d="M0 0 C2.64752004 2.57784846 4.94432065 4.91648098 7 8 C3.47730515 8.4025937 2.20059192 8.13372795 -0.8125 6.125 C-1.534375 5.42375 -2.25625 4.7225 -3 4 C-3 3.34 -3 2.68 -3 2 C-2.01 2 -1.02 2 0 2 C0 1.34 0 0.68 0 0 Z " fill="#CDCFEA" transform="translate(66,72)"/>
<path d="M0 0 C-2.55068845 2.35448165 -3.71017358 2.98327924 -7.25 3.1875 C-8.61125 3.0946875 -8.61125 3.0946875 -10 3 C-10 3.66 -10 4.32 -10 5 C-10.66 5 -11.32 5 -12 5 C-12 5.66 -12 6.32 -12 7 C-13.98 7 -15.96 7 -18 7 C-16.41766994 3.83533988 -13.24283913 3.13493675 -10.125 1.8125 C-9.48691406 1.52697266 -8.84882812 1.24144531 -8.19140625 0.94726562 C-3.36721246 -1.12240415 -3.36721246 -1.12240415 0 0 Z " fill="#BF9DCA" transform="translate(102,26)"/>
<path d="M0 0 C1.231394 3.69418201 0.64432764 6.2056261 0 10 C1.32 9.34 2.64 8.68 4 8 C3.67 8.99 3.34 9.98 3 11 C2.34 11 1.68 11 1 11 C0.34 12.98 -0.32 14.96 -1 17 C-3 14 -3 14 -3 11 C-2.34 11 -1.68 11 -1 11 C-1.01160156 10.37351563 -1.02320313 9.74703125 -1.03515625 9.1015625 C-1.04417969 8.28429687 -1.05320313 7.46703125 -1.0625 6.625 C-1.07410156 5.81289062 -1.08570313 5.00078125 -1.09765625 4.1640625 C-1 2 -1 2 0 0 Z " fill="#B8BCEA" transform="translate(53,177)"/>
<path d="M0 0 C1.79567975 3.25417945 2.77381863 6.46571529 3.6875 10.0625 C4.09548828 11.62677734 4.09548828 11.62677734 4.51171875 13.22265625 C5 16 5 16 4 19 C0.59704588 15.46019786 0.4674355 11.93347893 0.3125 7.25 C0.27833984 6.55261719 0.24417969 5.85523437 0.20898438 5.13671875 C0.12691705 3.42502892 0.06177081 1.7125424 0 0 Z " fill="#EA9095" transform="translate(189,68)"/>
<path d="M0 0 C0.33 0 0.66 0 1 0 C1 1.98 1 3.96 1 6 C2.32 6.66 3.64 7.32 5 8 C4.79375 8.61875 4.5875 9.2375 4.375 9.875 C4.25125 10.57625 4.1275 11.2775 4 12 C4.66 12.66 5.32 13.32 6 14 C4.68 14 3.36 14 2 14 C2 12.02 2 10.04 2 8 C1.34 8 0.68 8 0 8 C0 5.36 0 2.72 0 0 Z " fill="#868ADF" transform="translate(33,28)"/>
<path d="M0 0 C0.33 0.99 0.66 1.98 1 3 C0.34 3.66 -0.32 4.32 -1 5 C-1.45811675 6.97235333 -1.45811675 6.97235333 -1.625 9.125 C-1.810625 11.043125 -1.810625 11.043125 -2 13 C-3.32 13.33 -4.64 13.66 -6 14 C-5.67 12.68 -5.34 11.36 -5 10 C-4.34 10 -3.68 10 -3 10 C-3.37125 8.63875 -3.37125 8.63875 -3.75 7.25 C-4 4 -4 4 -2.0625 1.625 C-1.381875 1.08875 -0.70125 0.5525 0 0 Z " fill="#0E08DA" transform="translate(67,57)"/>
<path d="M0 0 C1.65 0 3.3 0 5 0 C4.34 0.66 3.68 1.32 3 2 C3.70339566 4.50965614 3.70339566 4.50965614 5 7 C7.04105639 7.88693303 7.04105639 7.88693303 9 8 C5.535 9.485 5.535 9.485 2 11 C2.04125 9.9275 2.0825 8.855 2.125 7.75 C2.0114175 4.34252515 1.78726636 2.79260369 0 0 Z " fill="#880D80" transform="translate(52,57)"/>
<path d="M0 0 C0 1.98 0 3.96 0 6 C-1.98 6 -3.96 6 -6 6 C-3.84615385 0 -3.84615385 0 0 0 Z " fill="#0808E5" transform="translate(58,187)"/>
<path d="M0 0 C0.66 0 1.32 0 2 0 C1.855625 0.804375 1.71125 1.60875 1.5625 2.4375 C0.90311661 6.61359481 0.43908647 10.79598059 0 15 C-0.33 15 -0.66 15 -1 15 C-2.01603857 9.20858017 -1.96263236 5.5415502 0 0 Z " fill="#0D0DD0" transform="translate(52,173)"/>
<path d="M0 0 C2.77862859 3.47328574 4.98463473 7.0412468 7 11 C6.67 11.99 6.34 12.98 6 14 C5.67 13.34 5.34 12.68 5 12 C4.01 12.495 4.01 12.495 3 13 C2.49242138 11.58603098 1.99425075 10.16868271 1.5 8.75 C1.08234375 7.56664062 1.08234375 7.56664062 0.65625 6.359375 C0 4 0 4 0 0 Z " fill="#CFD6F3" transform="translate(40,55)"/>
<path d="M0 0 C0.33 0 0.66 0 1 0 C1.66 3.3 2.32 6.6 3 10 C1.68 10.33 0.36 10.66 -1 11 C-1.66 9.68 -2.32 8.36 -3 7 C-2.34 7 -1.68 7 -1 7 C-0.67 4.69 -0.34 2.38 0 0 Z " fill="#ECA1A6" transform="translate(201,113)"/>
<path d="M0 0 C0 2.31 0 4.62 0 7 C-0.66 7 -1.32 7 -2 7 C-2.33 7.66 -2.66 8.32 -3 9 C-3.33 8.67 -3.66 8.34 -4 8 C-3.6875 4.5 -3.6875 4.5 -3 1 C-1 0 -1 0 0 0 Z " fill="#0707E4" transform="translate(24,73)"/>
<path d="M0 0 C0.99 0.495 0.99 0.495 2 1 C1.95875 1.804375 1.9175 2.60875 1.875 3.4375 C2.0279781 7.79737593 2.94975235 11.78025497 4 16 C1.7522025 13.94766315 0.9977758 12.99332739 0 10 C-0.06802967 8.27204648 -0.08495645 6.54164635 -0.0625 4.8125 C-0.05347656 3.91144531 -0.04445313 3.01039063 -0.03515625 2.08203125 C-0.02355469 1.39496094 -0.01195313 0.70789063 0 0 Z " fill="#7579DB" transform="translate(70,160)"/>
<path d="M0 0 C1.72274487 2.58411731 2.68895522 4.54902656 3.6875 7.4375 C3.95949219 8.19933594 4.23148438 8.96117188 4.51171875 9.74609375 C5.04729142 12.21829721 4.80445309 13.62983284 4 16 C1.18150494 10.45108785 -0.5326514 6.258654 0 0 Z " fill="#9EA4E9" transform="translate(52,96)"/>
<path d="M0 0 C1.231394 2.46278801 1.07159196 4.2795055 1 7 C1.66 6.67 2.32 6.34 3 6 C3 6.99 3 7.98 3 9 C1.35 8.67 -0.3 8.34 -2 8 C-2.6875 6.25 -2.6875 6.25 -3 4 C-1.5625 1.75 -1.5625 1.75 0 0 Z " fill="#8082D9" transform="translate(20,74)"/>
<path d="M0 0 C0.66 1.32 1.32 2.64 2 4 C3.98 4 5.96 4 8 4 C7.67 4.99 7.34 5.98 7 7 C3.87709365 6.51421457 1.00419641 6.0013988 -2 5 C-1.34 3.35 -0.68 1.7 0 0 Z " fill="#B80A4C" transform="translate(59,53)"/>
<path d="M0 0 C0.12375 0.639375 0.2475 1.27875 0.375 1.9375 C0.58125 2.618125 0.7875 3.29875 1 4 C1.66 4.33 2.32 4.66 3 5 C2.01 5.495 2.01 5.495 1 6 C0.53101037 8.8159849 0.53101037 8.8159849 0.375 12.0625 C0.30023437 13.16722656 0.22546875 14.27195312 0.1484375 15.41015625 C0.09945313 16.26480469 0.05046875 17.11945313 0 18 C-0.33 18 -0.66 18 -1 18 C-1.02690844 15.37493198 -1.04679404 12.75013827 -1.0625 10.125 C-1.07087891 9.37863281 -1.07925781 8.63226563 -1.08789062 7.86328125 C-1.11328125 2.2265625 -1.11328125 2.2265625 0 0 Z " fill="#4143CE" transform="translate(31,50)"/>
<path d="M0 0 C3.12270126 2.51830747 3.94523098 3.7261549 4.75 7.75 C4.8325 8.8225 4.915 9.895 5 11 C1.62668646 8.75112431 1.1641821 7.7612037 0 4 C0 2.68 0 1.36 0 0 Z " fill="#E55C60" transform="translate(135,34)"/>
<path d="M0 0 C0.33 0 0.66 0 1 0 C0.88541307 1.43836751 0.75790884 2.87570966 0.625 4.3125 C0.55539063 5.11300781 0.48578125 5.91351563 0.4140625 6.73828125 C0 9 0 9 -2 12 C-2 10.02 -2 8.04 -2 6 C-2.66 5.67 -3.32 5.34 -4 5 C-2.68 4.34 -1.36 3.68 0 3 C0 2.01 0 1.02 0 0 Z " fill="#7376DB" transform="translate(31,73)"/>
<path d="M0 0 C4.875 0.875 4.875 0.875 6 2 C5.71269945 4.33944736 5.38063221 6.6739143 5 9 C4.34 9 3.68 9 3 9 C2.87625 7.88625 2.7525 6.7725 2.625 5.625 C2.3534187 1.96896323 2.3534187 1.96896323 0 0 Z " fill="#E56F83" transform="translate(146,106)"/>
<path d="M0 0 C0.88935377 3.303314 1.46274105 6.62294375 2 10 C-1.875 8.25 -1.875 8.25 -3 6 C-2.06553465 3.96855359 -1.06775224 1.96466413 0 0 Z " fill="#A3A7E7" transform="translate(26,33)"/>
<path d="M0 0 C0.33 0 0.66 0 1 0 C1 1.65 1 3.3 1 5 C1.66 5 2.32 5 3 5 C3 6.98 3 8.96 3 11 C2.34 11 1.68 11 1 11 C-0.20272819 8.59454362 -0.10071472 7.05003047 -0.0625 4.375 C-0.05347656 3.55773437 -0.04445312 2.74046875 -0.03515625 1.8984375 C-0.02355469 1.27195312 -0.01195312 0.64546875 0 0 Z " fill="#E75D60" transform="translate(139,116)"/>
<path d="M0 0 C4.55384615 -0.36923077 4.55384615 -0.36923077 6.8125 1.5 C7.204375 1.995 7.59625 2.49 8 3 C7.34 3 6.68 3 6 3 C5.67 3.66 5.34 4.32 5 5 C2.5 3.625 2.5 3.625 0 2 C0 1.34 0 0.68 0 0 Z " fill="#D7DAEF" transform="translate(66,97)"/>
<path d="M0 0 C1.65 0 3.3 0 5 0 C4.0409375 1.0209375 4.0409375 1.0209375 3.0625 2.0625 C0.6741507 5.46408839 0.32122847 7.90433701 0 12 C-0.33 12 -0.66 12 -1 12 C-1.02712066 10.56260487 -1.04645067 9.12506137 -1.0625 7.6875 C-1.07410156 6.88699219 -1.08570312 6.08648437 -1.09765625 5.26171875 C-1 3 -1 3 0 0 Z " fill="#0E0ED1" transform="translate(26,43)"/>
<path d="M0 0 C0.66 0 1.32 0 2 0 C2.625 2.875 2.625 2.875 3 6 C2.34 6.66 1.68 7.32 1 8 C1 6.35 1 4.7 1 3 C0.34 3 -0.32 3 -1 3 C-1 4.65 -1 6.3 -1 8 C-1.33 8 -1.66 8 -2 8 C-2.125 5.125 -2.125 5.125 -2 2 C-1.34 1.34 -0.68 0.68 0 0 Z " fill="#DADDF2" transform="translate(29,44)"/>
<path d="M0 0 C2 1.625 2 1.625 4 4 C4.25 7.25 4.25 7.25 4 10 C3.01 9.67 2.02 9.34 1 9 C0.67 6.03 0.34 3.06 0 0 Z " fill="#7A7CE0" transform="translate(60,149)"/>
<path d="M0 0 C-6 4 -6 4 -10 4 C-10 3.01 -10 2.02 -10 1 C-6.59437148 0.22157062 -3.49234244 -0.09978121 0 0 Z " fill="#4A4DDD" transform="translate(108,110)"/>
<path d="M0 0 C0.33 0.99 0.66 1.98 1 3 C1.66 3 2.32 3 3 3 C3.33 4.98 3.66 6.96 4 9 C3.01 8.67 2.02 8.34 1 8 C0.67 5.36 0.34 2.72 0 0 Z " fill="#3F41DC" transform="translate(75,185)"/>
<path d="M0 0 C0.66 0 1.32 0 2 0 C1.34 3.3 0.68 6.6 0 10 C-0.99 8.68 -1.98 7.36 -3 6 C-2.33228817 3.60736593 -1.77902615 1.77902615 0 0 Z " fill="#2425CB" transform="translate(61,167)"/>
<path d="M0 0 C0.33 0 0.66 0 1 0 C3.27678571 8.03571429 3.27678571 8.03571429 2 12 C-0.13586678 8.79619983 -0.23132175 7.98060033 -0.125 4.3125 C-0.10695312 3.50425781 -0.08890625 2.69601563 -0.0703125 1.86328125 C-0.04710937 1.24839844 -0.02390625 0.63351563 0 0 Z " fill="#EA8D95" transform="translate(196,95)"/>
<path d="M0 0 C-0.66 0 -1.32 0 -2 0 C-2 0.66 -2 1.32 -2 2 C-2.99 2 -3.98 2 -5 2 C-4.67 3.65 -4.34 5.3 -4 7 C-4.66 6.67 -5.32 6.34 -6 6 C-6 4.02 -6 2.04 -6 0 C-3.50907189 -1.24546405 -2.58919267 -0.7767578 0 0 Z " fill="#2527D9" transform="translate(71,81)"/>
<path d="M0 0 C0.99 0 1.98 0 3 0 C3 3.3 3 6.6 3 10 C0.70366176 6.55549263 0.45983515 4.06187717 0 0 Z " fill="#C70A37" transform="translate(92,29)"/>
<path d="M0 0 C0 0.99 0 1.98 0 3 C-2.375 3.625 -2.375 3.625 -5 4 C-5.66 3.34 -6.32 2.68 -7 2 C-4.35261084 0.5393715 -3.10551666 0 0 0 Z " fill="#C3C6ED" transform="translate(82,107)"/>
<path d="M0 0 C0.66 0 1.32 0 2 0 C1.34 1.98 0.68 3.96 0 6 C-0.66 6 -1.32 6 -2 6 C-2.33 6.66 -2.66 7.32 -3 8 C-2.25 2.25 -2.25 2.25 0 0 Z " fill="#D8DDF0" transform="translate(25,78)"/>
<path d="M0 0 C0.33 0.66 0.66 1.32 1 2 C2.65 2 4.3 2 6 2 C5.67 2.99 5.34 3.98 5 5 C2.69 4.34 0.38 3.68 -2 3 C-1.34 2.67 -0.68 2.34 0 2 C0 1.34 0 0.68 0 0 Z " fill="#2A2BD6" transform="translate(34,40)"/>
</svg>
